<svg width="40" height="40" viewBox="0 0 40 40" fill="none" xmlns="http://www.w3.org/2000/svg">
<path fill-rule="evenodd" clip-rule="evenodd" d="M40 1.14213C40 0.513685 39.4863 0 38.8578 0H11.4291C5.11704 0 0 5.11681 0 11.4286C0 17.7403 5.11704 22.8571 11.4291 22.8571C14.5842 22.8571 17.1436 25.4146 17.1436 28.5714C17.1436 31.7282 14.586 34.2857 11.4291 34.2857C8.27216 34.2857 5.71455 31.7282 5.71455 28.5714C5.71455 26.9939 4.43574 25.7134 2.85636 25.7152C1.27881 25.7152 0 26.9939 0 28.5714C0 28.5969 0 28.6206 0 28.6461C0.0400765 34.9233 5.14072 40 11.4273 40C14.8411 40 17.9051 38.5027 19.9982 36.1292C22.0931 38.5027 25.1553 40 28.5691 40C34.8811 40 39.9982 34.8832 39.9982 28.5714V1.14213H40ZM11.4291 17.1429C17.7411 17.1429 22.8582 22.2597 22.8582 28.5714C22.8582 31.7264 25.4158 34.2857 28.5727 34.2857C31.7297 34.2857 34.2873 31.7282 34.2873 28.5714V10.0952V7.14422C34.2873 6.35912 33.6442 5.71611 32.8591 5.71611H11.4291C8.27398 5.71611 5.71455 8.27542 5.71455 11.4304C5.71455 14.5854 8.27216 17.1447 11.4291 17.1447V17.1429Z" fill="#FF3800"/>
</svg>
