<?xml version="1.0" encoding="UTF-8"?>
<svg id="Ebene_1" data-name="Ebene 1" xmlns="http://www.w3.org/2000/svg" viewBox="0 0 114.98 71.23">
  <defs>
    <style>
      .cls-1 {
        fill: #133b89;
      }
    </style>
  </defs>
  <path class="cls-1" d="m21.89,25.07c0-1.93.15-2.82,2.82-2.82,4.4,0,7.02,1.04,7.02,6.31,0,5.65-3.36,6.87-7.26,6.87h-2.57v-10.35Zm-5.44,26.64h5.44v-14.07h1.73c6.13,0,13.54,0,13.54-8.89,0-5.55-3.95-8.71-10.03-8.71h-15.42v1.04c4.64.71,4.74.71,4.74,5.37v25.27Zm29.85,0h5.44v-15.44h5.98c2.97,0,4.05,1.51,4.05,4.05h1.38v-9.88h-1.38c-.3,1.55-.59,3.62-4.05,3.62h-5.98v-9.37c0-2.26.64-2.45,3.12-2.45h3.85c3.21,0,5.34.99,5.34,4.75h1.39l-.15-6.97h-23.67v1.04c4.55.71,4.69.71,4.69,5.37v25.27Zm29.26,0h5.44v-15.39h13.44v15.39h5.43v-31.68h-5.43v14.07h-13.44v-14.59l-10.38,1.08v1.04c4.65.47,4.94.89,4.94,4.61v25.46Z"/>
</svg>