<?xml version="1.0" encoding="UTF-8"?>
<svg id="Layer_1" xmlns="http://www.w3.org/2000/svg" version="1.1" viewBox="0 0 50 50">
  <!-- Generator: Adobe Illustrator 29.5.1, SVG Export Plug-In . SVG Version: 2.1.0 Build 141)  -->
  <defs>
    <style>
      .st0 {
        fill: #fff;
        fill-rule: evenodd;
      }

      .st1 {
        fill: #ff3800;
      }
    </style>
  </defs>
  <rect class="st1" width="50" height="50"/>
  <path class="st0" d="M45,6.1c0-.6-.5-1.1-1.1-1.1h-27.4c-6.3,0-11.4,5.1-11.4,11.4s5.1,11.4,11.4,11.4,5.7,2.6,5.7,5.7-2.6,5.7-5.7,5.7-5.7-2.6-5.7-5.7-1.3-2.9-2.9-2.9c-1.6,0-2.9,1.3-2.9,2.9h0c0,6.4,5.1,11.4,11.4,11.4s6.5-1.5,8.6-3.9c2.1,2.4,5.2,3.9,8.6,3.9,6.3,0,11.4-5.1,11.4-11.4V6.1h0ZM16.4,22.1c6.3,0,11.4,5.1,11.4,11.4s2.6,5.7,5.7,5.7,5.7-2.6,5.7-5.7V12.1c0-.8-.6-1.4-1.4-1.4h-21.4c-3.2,0-5.7,2.6-5.7,5.7s2.6,5.7,5.7,5.7h0Z"/>
</svg>