<?xml version="1.0" encoding="UTF-8"?>
<svg id="Layer_1" xmlns="http://www.w3.org/2000/svg" version="1.1" viewBox="0 0 1920 413.2">
  <!-- Generator: Adobe Illustrator 29.5.1, SVG Export Plug-In . SVG Version: 2.1.0 Build 141)  -->
  <defs>
    <style>
      .st0 {
        fill: #4f2170;
      }
    </style>
  </defs>
  <path class="st0" d="M280.7,274.2c-8,7.3-19.6,9.7-26.8,10.6-14.7,1.8-30-3.1-39.7-14.8-8-9.6-12.1-22-19.9-31.9-12.3-15.7-32-26-52.3-22.3-40.1,7.3-58.3,54-35.6,86.5,32.4,46.4,105.3,38.3,142.7,6.2,11.6-10.1,22.4-21.2,31.6-34.3"/>
  <path class="st0" d="M1639.3,274.1c8,7.3,19.5,9.7,26.8,10.6,14.7,1.9,30-3,39.7-14.8,8-9.6,12.1-22,19.9-31.9,12.3-15.7,32-26,52.3-22.3,40.1,7.3,58.3,54,35.6,86.5-32.4,46.3-105.3,38.3-142.6,6.2-11.7-10-22.6-21.1-31.7-34.3"/>
  <g>
    <path class="st0" d="M1505.8,26.9h-97.6c-10.5.3-19.2,10-19.7,20-.5,10.6,8.7,21.1,19.7,21.7h97.6c10.5-.3,19.2-10,19.7-20,.5-10.6-8.7-21.1-19.7-21.7"/>
    <path class="st0" d="M896.3,234.9c-1.3-5.5-2-11-2.4-16.5,0-7.9,0-19.1,0-29.3,1-35.4,7.6-97.7-40.4-97.7s-51.7,27.3-57.1,36.2c-.8-24.9-20.4-42.9-50.4-42.9s-30.5,15.2-30.5,15.2c0,0,18.7,6.5,18.7,31.5.2,18,0,105.4,0,105.7.7,15.5,11.6,30,30.9,30s31.4-14.9,31.4-30v-77.5c2.7-12.7,9.8-25.6,20.6-25.6s14.7,15.5,14.8,15.5v75.1c0,2.4.3,4.8.7,7.1.7,3.9,1.9,7.6,3.6,10.9,7.4,15.1,23.9,25,46,25s30.5-15.2,30.5-15.2c0,0-11.3-4-16.3-17.5"/>
    <path class="st0" d="M1357.9,234.9c-1.4-5.5-2.1-11-2.4-16.5V32.7c0-18.1-14.5-32.7-32.6-32.7s-32.7,14.6-32.7,32.7v164.5c.2,14.8-1.3,30,5.7,43.6,7.4,15.1,25.7,26.8,47.8,26.8s30.5-15.2,30.5-15.2c0,0-11.2-4-16.3-17.5"/>
    <path class="st0" d="M627.6,229.8h-.4c-16.8-.3-25.2-19.6-25.2-51.1s10.7-50.8,25.2-51.1h.4c14.5.3,25.2,19.7,25.2,51.1s-8.4,50.8-25.2,51.1M627,89.8c-49.1,0-88.9,39.8-88.9,88.9s39.8,88.9,88.9,88.9,88.9-39.8,88.9-88.9-39.8-88.9-88.9-88.9"/>
    <path class="st0" d="M998.7,224.1h-.4c-16.8-.2-25.2-17.1-25.2-44.5s10.6-44.2,25.2-44.6h.4c14.6.3,25.2,17.1,25.2,44.6s-8.4,44.2-25.2,44.5M1096.2,234.9c-1.4-5.5-2.1-11-2.4-16.5V32.7c0-18.1-14.6-32.7-32.7-32.7s-32.7,14.6-32.7,32.7v88c-8-11-25.3-29.5-52.6-29.5-75.1,0-79.9,133.8-28.4,166.9,14.5,9.3,36.4,11.7,53,7.4,11.4-3,29.5-14.2,32.4-27.7.4,1,.9,2,1.4,2.9,7.4,15.1,25.7,26.8,47.8,26.8s30.5-15.2,30.5-15.2c0,0-11.3-3.9-16.3-17.4"/>
    <path class="st0" d="M1170.9,168.6c1.9-14,5.3-31.7,17.9-39.9,10.5-6.8,25.1.9,25.4,14,.2,13.8-8.7,23.3-21.2,25.9-1.4.3-22.3,1.3-22.1,0M1266.4,212.5s-9.6,13.1-46.8,13.1-45.2-28.9-45.2-28.9c54.2,0,99.7-3.6,99.7-47.5s-49.6-58.4-79.1-58.4c-48.6,0-84.1,38.7-84.1,89.9s46.2,86.8,84.6,86.8c67.6,0,70.9-55,70.9-55Z"/>
    <path class="st0" d="M1432.5,168.6c1.9-14,5.3-31.7,17.9-39.9,10.5-6.8,25.1.9,25.4,14,.2,13.8-8.7,23.3-21.2,25.9-1.3.3-22.2,1.3-22.1,0M1528.1,212.5s-9.6,13.1-46.8,13.1-45.2-28.9-45.2-28.9c54.2,0,99.7-3.6,99.7-47.5s-49.6-58.4-79.1-58.4c-48.6,0-84.1,38.7-84.1,89.9s46.2,86.8,84.6,86.8c67.6,0,70.9-55,70.9-55Z"/>
    <path class="st0" d="M1650.8,217.3h-37.3c2.7,0,30.3-23.2,39.5-31,23.9-20.3,67-49.6,54.4-87.6v.3c-2.3-9-9.3-14.3-9.3-14.3,0,0-2.6,7.4-11.5,10.7-3.6.9-7.2,1.5-10.8,1.7-3,.1-104.2,0-104.2,0-13.7,0-25.2,11-25.3,24-.2,13.1,10.7,23.6,24.5,23.8l59,.4c-27.4,15.3-60,33.3-76.6,60.9-9.5,15.8-19.6,40.3-15.8,59,13.1-11.6,47.5-22.9,73.7-17.4,9.8,2,20.2,7.1,28.7,12.4,49.1,30.7,78.7-29.4,55.2-55.9.2-.1-13.2,13-44.2,13"/>
    <path class="st0" d="M542.9,254.7c-30.1-33.1-39.6-88-41.4-124.5-1.6-31.6.1-86.2,25-102.1-8.3-10.5-24.7-14.7-37.2-14.7-28,0-41.6,18.7-51.1,32.1-3.2,4.4-50.3,69.5-50.3,69.5,0,0-39.7-61.4-44.5-68.7-6.7-10.2-19.3-28.9-41.5-32.1-9.5-1.4-34.3-2.7-47.8,15.8,23.2,18.6,22.7,65.9,17.6,98.3-15.1,97-56.4,106-56.4,106,21.1,57.1,75.6,34.5,91-11,10-29.6,16.4-67.1,17.9-98.1l59.8,91.7s67.7-91.4,67.7-91.3c-11.1,161.6,44.4,207.4,92.9,207.4s65.1-44.4,65.1-44.4c-26.5-1.8-49.5-15-66.8-33.9"/>
  </g>
  <g>
    <path class="st0" d="M694.5,307.2c.6,2.4.9,4.7,1,7.1v85.6c.2,7,6.7,12.9,13.4,13.2,7.1.4,14.2-5.8,14.5-13.2v-76.5c0-6.3.6-12.8-2.4-18.6-3.2-6.5-11-11.5-20.5-11.5s-13.1,6.5-13.1,6.5c0,0,5,1.7,7.1,7.4"/>
    <path class="st0" d="M1580.9,399.1c-.6-2.4-.9-4.7-1-7.1v-85.5c-.2-7-6.7-12.9-13.4-13.2-7.1-.4-14.2,5.8-14.5,13.2v76.5c0,6.3-.5,12.8,2.4,18.6,3.2,6.5,11,11.5,20.5,11.5s13.1-6.5,13.1-6.5c0,0-4.9-1.7-7.1-7.5"/>
    <path class="st0" d="M1075,336.7c-14.5,0-23.1,12.2-25.6,16.2h0v-7.3c-.2-7-6.7-12.3-13.4-12.6-7.1-.4-14.2,5.3-14.5,12.6v54.2c.2,7,6.7,12.8,13.4,13.2,7.1.4,14.2-5.8,14.5-13.2v-32.5h0c1.2-5.8,4.4-11.6,9.2-11.6s6.6,7,6.6,7v37.1c0,7,6.6,12.8,13.3,13.2,7.1.4,14.2-5.8,14.5-13.2v-19.4c0-19.9,2.2-43.8-18-43.7"/>
    <path class="st0" d="M1432.3,336.7c-14.5,0-23.1,12.2-25.6,16.2h0v-7.3c-.2-7-6.7-12.3-13.4-12.6-7.1-.4-14.2,5.3-14.5,12.6v54.2c.2,7,6.7,12.8,13.4,13.2,7.1.4,14.2-5.8,14.5-13.2v-32.5h0c1.2-5.8,4.4-11.6,9.2-11.6s6.6,7,6.6,7v37.1c0,7,6.6,12.8,13.3,13.2,7.1.4,14.2-5.8,14.5-13.2v-19.4c.2-19.9,2.3-43.8-18-43.7"/>
    <path class="st0" d="M791.1,336.7c-14.5,0-23.1,12.2-25.6,16.2h0v-7.3c-.2-7-6.7-12.3-13.4-12.6-7.1-.4-14.2,5.3-14.5,12.6v54.2c.2,7,6.7,12.8,13.4,13.2,7.1.4,14.2-5.8,14.5-13.2v-32.5h0c1.2-5.8,4.4-11.6,9.2-11.6s6.6,7,6.6,7v37.1c.1,7,6.6,12.8,13.3,13.2,7.1.4,14.2-5.8,14.5-13.2v-19.4c.2-19.9,2.3-43.8-18-43.7"/>
    <path class="st0" d="M1331.3,395.9h0s-.1,0,0,0h-.2c-7.5,0-11.3-8.8-11.3-22.9s4.8-22.8,11.3-22.9h.2c6.5.2,11.3,8.8,11.3,22.9,0,14.1-3.8,22.8-11.3,22.9M1331,333.2c-22,0-39.8,17.8-39.8,39.8s17.8,39.8,39.8,39.8,39.8-17.8,39.8-39.8-17.8-39.8-39.8-39.8"/>
    <path class="st0" d="M1139.6,392.9h0s0,0,0,0h-.2c-7.5,0-11.3-7.7-11.3-20s4.8-19.8,11.3-20h.2c6.5,0,11.3,7.7,11.3,20s-3.8,19.8-11.3,20M1182.3,344.6c-.2-7.4-7.2-13.5-14.2-13.8-7.5-.4-14.8,6.1-15.2,13.8,0,.5,0,1.7,0,1.9-3.5-4.9-11.3-13.2-23.5-13.2-33.7,0-35.8,59.9-12.7,74.8,6.5,4.2,16.3,5.2,23.8,3.3,4.2-1.1,10.4-4.7,13.2-9.2,1.7,5.9,7.6,10.4,13.5,10.7,7.5.4,14.8-6.1,15.2-13.8,0-1.1,0-53.8,0-54.5"/>
    <path class="st0" d="M1496.7,392.9h0q0,0,0,0h-.2c-7.5,0-11.3-7.7-11.3-20s4.8-19.8,11.3-20h.2c6.5,0,11.3,7.7,11.3,20s-3.8,19.8-11.3,20M1539.4,344.6c-.2-7.4-7.2-13.5-14.2-13.8-7.5-.4-14.8,6.1-15.2,13.8,0,.5,0,1.7,0,1.9-3.5-4.9-11.3-13.2-23.5-13.2-33.7,0-35.8,59.9-12.7,74.8,6.5,4.2,16.3,5.2,23.7,3.3,4.2-1.1,10.4-4.7,13.2-9.2,1.7,5.9,7.6,10.4,13.5,10.7,7.5.4,14.8-6.1,15.2-13.8,0-1.1,0-53.8,0-54.5"/>
    <path class="st0" d="M1282.4,352.1c-.3-6.9-5.8-12.4-12.7-13-.4,0-.8,0-1.2,0-6.2,0-14.1,5.4-14.1,12.2v25.8h0c0,8,0,22.6,0,22.7.3,6.9,5.8,12.4,12.7,13,.4,0,.8,0,1.2,0,6.2,0,14.1-5.4,14.1-12.2v-21.5h0c0-8.1,0-26.8,0-27"/>
    <path class="st0" d="M1282.3,317.3c0,7.6-6.2,13.8-13.9,13.8s-13.9-6.2-13.9-13.8,6.2-13.9,13.9-13.9,13.9,6.2,13.9,13.9"/>
    <path class="st0" d="M999.1,335.7c-8.3.3-12.4,6.5-18.1,14.3,0,0,0-3.6,0-3.7-.2-7-6.7-12.8-13.4-13.2-7.1-.4-14.2,5.8-14.5,13.2v53.7h0c.2,7,6.7,12.9,13.4,13.2,7.1.3,14-5.7,14.5-13h0v-34c.4-5,2.6-11.2,6.6-11.2,5.7,0-.2,13.8,12.8,13.8,18.7,0,20.6-34-1.4-33.1"/>
    <path class="st0" d="M899.2,368.4c.9-6.3,2.4-14.2,8-17.9,4.7-3,11.3.4,11.4,6.3,0,6.2-3.9,10.4-9.5,11.6-.6.2-10,.6-9.9,0M942.1,388.1s-4.3,5.9-21,5.9-20.3-13-20.3-13c24.3,0,44.7-1.6,44.7-21.3s-22.3-26.2-35.5-26.2c-21.8,0-37.7,17.4-37.7,40.3s20.7,38.9,38,38.9c30.3,0,31.8-24.6,31.8-24.6Z"/>
    <path class="st0" d="M870.7,398.1s-7.3,14.7-20.7,14.7-24.7-9.8-25.2-23.9c0,0,0-20.5,0-37.5h-3.8c-2,0-5.4-1.2-5.4-6.3s3.9-6.2,5.8-6.2h3.3v-10.3c.4-7.3,7.4-13.5,14.5-13.1,6.7.3,13.3,6.1,13.6,13.1h0v10.3h11.8c1.6,0,5.4,1.1,5.4,6.3s-3.8,6.2-5.8,6.2h-11.4v31.2c0,10.2,8.6,15.5,18,15.5"/>
    <path class="st0" d="M1244.7,398.1s-7.3,14.7-20.7,14.7-24.7-9.8-25.2-23.9c0,0,0-20.5,0-37.5h-3.8c-2,0-5.4-1.2-5.4-6.3s3.9-6.2,5.8-6.2h3.3v-10.3c.4-7.3,7.4-13.5,14.5-13.1,6.7.3,13.3,6.1,13.6,13.1h0v10.3h11.8c1.6,0,5.4,1.1,5.4,6.3s-3.8,6.2-5.8,6.2h-11.4v31.2c-.1,10.2,8.7,15.5,18,15.5"/>
  </g>
</svg>