<svg version="1.1" id="Layer_1" xmlns="http://www.w3.org/2000/svg" xmlns:xlink="http://www.w3.org/1999/xlink" x="0px" y="0px" viewBox="0 0 363.8 60.3" style="enable-background:new 0 0 363.8 60.3;" xml:space="preserve">
 <style type="text/css">
  .st0{fill:#006196;}
	.st1{fill:#2BA8E0;}
	.st2{fill:#6ECFF5;}
 </style>
 <g>
  <g>
   <path class="st0" d="M34.5,60.3L19.3,33.7h30.3L34.5,60.3z">
   </path>
   <path class="st1" d="M49.6,33.7H19.3L34.4,7.2L49.6,33.7z">
   </path>
   <path class="st0" d="M38.6,0h30.3L49.6,33.7L34.4,7.2L38.6,0z">
   </path>
   <path class="st2" d="M30.3,0l4.1,7.2L19.3,33.7L0,0H30.3z">
   </path>
  </g>
  <g>
   <g>
    <path d="M358.6,37.2c-2.9,0-5.2,2.3-5.2,5.2s2.3,5.2,5.2,5.2s5.2-2.3,5.2-5.2C363.8,39.6,361.5,37.2,358.6,37.2z M358.6,46.6
				c-2.3,0-4.2-1.9-4.2-4.2c0-2.3,1.9-4.2,4.2-4.2s4.2,1.9,4.2,4.2C362.7,44.7,360.9,46.6,358.6,46.6z">
    </path>
    <path d="M360.8,41.4c0-0.9-0.7-1.5-1.9-1.5h-2.2v5h0.8v-2h0.7l1.6,2h1l-1.7-2C360.2,42.8,360.8,42.3,360.8,41.4z M357.6,42.3
				v-1.5h1.3c0.7,0,1,0.3,1,0.8c0,0.5-0.4,0.8-1,0.8H357.6z">
    </path>
   </g>
   <polygon points="95.8,37.8 87.7,13.7 77.7,13.7 90,47.4 100.5,47.4 112.8,13.7 103.8,13.7 		">
   </polygon>
   <path d="M144.3,26.5c-4.9-0.7-6.5-1.6-6.5-3.7c0-2.1,1.7-3.5,4.8-3.5c1.6,0,2.8,0.3,3.7,1c0.9,0.7,1.4,1.7,1.6,3.1h8.6
			c-0.8-7.8-6.5-10.5-13.9-10.5c-6.9,0-13.4,3.5-13.4,10.5c0,6.6,3.5,9.2,12.5,10.5c4.8,0.7,6.8,1.7,6.8,4c0,2.3-1.7,3.7-5.3,3.7
			c-2,0-3.4-0.4-4.4-1.3c-0.9-0.8-1.4-2-1.6-3.5h-8.7c0.3,7.3,5.6,11.3,14.7,11.3c8.9,0,14.2-3.8,14.2-11.1
			C157.4,29.8,152.7,27.7,144.3,26.5z">
   </path>
   <path d="M171.8,36.7l0-16.4h7.1v-6.6h-7.1l0-7.6h-9.3l0,7.6h-4.3v6.6h4.3l0,17.2c0,7,3.8,10.6,10.9,10.6c2.5,0,4.4-0.4,5.7-0.9V40
			c-1.1,0.4-2.1,0.6-3.5,0.6C173.2,40.7,171.8,39.4,171.8,36.7z">
   </path>
   <path d="M207.8,18.7c-1.5-2.7-5.2-5.8-11.3-5.8c-9.4,0-16.7,7.1-16.7,17.6c0,9.4,6,17.7,16.7,17.7c4.7,0,9.1-1.8,11.3-5.7v5h8.6
			V13.7h-8.6V18.7z M207.9,31.1c-0.1,1.7-0.6,3.3-1.6,4.8c-1.5,2.3-4,4.2-8.1,4.2c-7,0-9.7-5.9-9.7-9.4v-0.1c0-4.3,2.9-9.7,9.6-9.7
			c4.9,0,7.6,2.6,8.8,5.2C207.7,27.7,208.1,29.4,207.9,31.1z">
   </path>
   <rect x="116.1" y="13.7" width="9.3" height="33.8">
   </rect>
   <path d="M120.2,0c-2.4,0.2-4.4,2.2-4.6,4.6c-0.3,3.3,2.4,6,5.7,5.7c2.4-0.2,4.4-2.2,4.6-4.6C126.2,2.4,123.4-0.3,120.2,0z">
   </path>
   <path d="M264.5,13.3h5.4v6.1c2.1-3.8,5-6.5,11.1-6.7v5c-6.8,0.3-11.1,2.5-11.1,10.8v18.6h-5.4V13.3z">
   </path>
   <path d="M284.9,5.2c0-1.9,1.6-3.6,3.6-3.6s3.6,1.6,3.6,3.6s-1.6,3.6-3.6,3.6S284.9,7.1,284.9,5.2z M285.8,13.3h5.4v33.8h-5.4V13.3
			z">
   </path>
   <path d="M299.1,13.3h5.4v5.4c1.6-3.2,5.3-5.9,10.9-5.9c7,0,11.9,3.8,11.9,13.6v20.8h-5.4V26c0-5.9-2.5-8.6-8-8.6
			c-5,0-9.4,3.2-9.4,9.2v20.5h-5.4L299.1,13.3L299.1,13.3z">
   </path>
   <path d="M334.8,38.7V17.9h-4.9v-4.5h4.9V5.6h5.4v7.7h7.9v4.5h-7.9v20.3c0,3.3,1.5,4.9,4.2,4.9c1.7,0,3-0.3,4.1-0.7v4.5
			c-1.1,0.4-2.4,0.7-4.6,0.7C337.7,47.6,334.8,44,334.8,38.7z">
   </path>
   <path d="M230.8,13.3v5.2l0,0c3.1-3.6,7-5.8,11.9-5.8c10.6,0,17.4,7.4,17.4,17.6c0,10.1-7.1,17.3-16.6,17.3
			c-6.1,0-10.8-2.5-12.8-6.3l0,0v18.9h-5.4V13.3H230.8z M242.8,43.1c7.3,0,11.9-5.5,11.9-12.5c0-7.8-4.7-13.4-11.9-13.4
			s-12,5.7-12,13.4C230.7,37.7,235.5,43.1,242.8,43.1z">
   </path>
  </g>
 </g>
</svg>